<?xml version="1.0" encoding="UTF-8"?>
<svg width="25px" height="17px" viewBox="0 0 25 17" version="1.1" xmlns="http://www.w3.org/2000/svg" xmlns:xlink="http://www.w3.org/1999/xlink">
    <!-- Generator: sketchtool 57.1 (101010) - https://sketch.com -->
    <title>D21C5CFC-A412-488B-B282-C47610CD27CA@3x</title>
    <desc>Created with sketchtool.</desc>
    <g id="Plantilla-maqueta" stroke="none" stroke-width="1" fill="none" fill-rule="evenodd">
        <g id="NATEEVO-Plantilla-maqueta" transform="translate(-1218.000000, -1794.000000)" fill="#FFFFFF" fill-rule="nonzero">
            <g id="FOOTER" transform="translate(0.000000, 1751.000000)">
                <g id="ico-youtube" transform="translate(1218.000000, 43.000000)">
                    <path d="M23.1715,1.6324 C22.515075,0.44352 21.8026875,0.22484 20.3522,0.14168 C18.903225,0.04158 15.2596125,0 12.103025,0 C8.9403875,0 5.2952625,0.04158 3.8478,0.14014 C2.4003375,0.22484 1.6864375,0.44198 1.0239625,1.6324 C0.347875,2.81974 0,4.86486 0,8.46538 C0,8.46846 0,8.47 0,8.47 C0,8.47308 0,8.47462 0,8.47462 L0,8.4777 C0,12.06282 0.347875,14.12334 1.0239625,15.29836 C1.6864375,16.48724 2.398825,16.70284 3.8462875,16.80294 C5.2952625,16.88918 8.9403875,16.94 12.103025,16.94 C15.2596125,16.94 18.903225,16.88918 20.3537125,16.80448 C21.8042,16.70438 22.5165875,16.48878 23.1730125,15.2999 C23.85515,14.12488 24.2,12.06436 24.2,8.47924 C24.2,8.47924 24.2,8.47462 24.2,8.47154 C24.2,8.47154 24.2,8.46846 24.2,8.46692 C24.2,4.86486 23.85515,2.81974 23.1715,1.6324 Z M9.075,13.09 L9.075,3.85 L16.6375,8.47 L9.075,13.09 Z" id="Shape"></path>
                </g>
            </g>
        </g>
    </g>
</svg>