<?xml version="1.0" encoding="UTF-8"?>
<svg width="21px" height="21px" viewBox="0 0 21 21" version="1.1" xmlns="http://www.w3.org/2000/svg" xmlns:xlink="http://www.w3.org/1999/xlink">
    <!-- Generator: sketchtool 57.1 (101010) - https://sketch.com -->
    <title>C82912E7-BD33-4CFD-80DB-13AA64BD7DB5@3x</title>
    <desc>Created with sketchtool.</desc>
    <g id="Plantilla-maqueta" stroke="none" stroke-width="1" fill="none" fill-rule="evenodd">
        <g id="NATEEVO-Plantilla-maqueta" transform="translate(-865.000000, -1368.000000)" fill="#999999">
            <g id="NOTICIAS" transform="translate(135.000000, 873.000000)">
                <g id="Noticia-secundaria" transform="translate(700.000000, 236.000000)">
                    <g id="ico-reloj" transform="translate(30.000000, 259.000000)">
                        <path d="M10.2359768,20.16 C4.59156673,20.16 0,15.6384 0,10.08 C0,4.5216 4.59156673,0 10.2359768,0 C15.8803868,0 20.4719536,4.5216 20.4719536,10.08 C20.4719536,15.6384 15.8803868,20.16 10.2359768,20.16 L10.2359768,20.16 Z M10.2359768,1.68048 C5.53181431,1.68048 1.70648356,5.44752 1.70648356,10.08 C1.70648356,14.71248 5.53181431,18.47952 10.2359768,18.47952 C14.9401393,18.47952 18.76547,14.71248 18.76547,10.08 C18.76547,5.44752 14.9401393,1.68048 10.2359768,1.68048 L10.2359768,1.68048 Z M13.6474816,14.28048 C13.4296015,14.28048 13.2117215,14.1984 13.0450213,14.03424 L9.63351644,10.67472 L9.63351644,10.67472 C9.55455319,10.59696 9.49167505,10.50336 9.44926886,10.40112 C9.40540039,10.29888 9.38346615,10.18944 9.38346615,10.08 L9.38346615,4.20048 C9.38346615,3.7368 9.76512186,3.35952 10.2359768,3.35952 C10.7068317,3.35952 11.0884874,3.7368 11.0884874,4.20048 L11.0884874,9.73296 L14.2514043,12.84624 C14.5848046,13.17456 14.5848046,13.70592 14.2514043,14.03424 C14.0847041,14.1984 13.866824,14.28048 13.6474816,14.28048 L13.6474816,14.28048 Z" id="ico-fecha"></path>
                    </g>
                </g>
            </g>
        </g>
    </g>
</svg>