<?xml version="1.0" encoding="UTF-8"?>
<svg width="25px" height="25px" viewBox="0 0 25 25" version="1.1" xmlns="http://www.w3.org/2000/svg" xmlns:xlink="http://www.w3.org/1999/xlink">
    <!-- Generator: sketchtool 57.1 (101010) - https://sketch.com -->
    <title>76E56F50-3E50-431D-9D02-DF310B19C907@3x</title>
    <desc>Created with sketchtool.</desc>
    <g id="Plantilla-maqueta" stroke="none" stroke-width="1" fill="none" fill-rule="evenodd">
        <g id="NATEEVO-Plantilla-maqueta" transform="translate(-1141.000000, -1789.000000)" fill="#FFFFFF" fill-rule="nonzero">
            <g id="FOOTER" transform="translate(0.000000, 1751.000000)">
                <g id="ico-linkedin" transform="translate(1141.000000, 38.000000)">
                    <rect id="Rectangle" x="0" y="7.5625" width="5.411725" height="16.6375"></rect>
                    <path d="M20.15255,7.7576125 C20.095075,7.7394625 20.040625,7.7198 19.980125,7.7031625 C19.907525,7.686525 19.834925,7.6729125 19.7608125,7.6608125 C19.4734375,7.6033375 19.1588375,7.5625 18.7897875,7.5625 C15.6347125,7.5625 13.633675,9.8569625 12.974225,10.7432875 L12.974225,7.5625 L7.5625,7.5625 L7.5625,24.2 L12.974225,24.2 L12.974225,15.125 C12.974225,15.125 17.064025,9.428925 18.7897875,13.6125 C18.7897875,17.3468625 18.7897875,24.2 18.7897875,24.2 L24.2,24.2 L24.2,12.9727125 C24.2,10.4589375 22.4772625,8.364125 20.15255,7.7576125 Z" id="Path"></path>
                    <circle id="Oval" cx="2.646875" cy="2.646875" r="2.646875"></circle>
                </g>
            </g>
        </g>
    </g>
</svg>