<?xml version="1.0" encoding="UTF-8"?>
<svg width="25px" height="25px" viewBox="0 0 25 25" version="1.1" xmlns="http://www.w3.org/2000/svg" xmlns:xlink="http://www.w3.org/1999/xlink">
    <!-- Generator: sketchtool 57.1 (101010) - https://sketch.com -->
    <title>4421E8A1-3929-420B-8695-4A3637C328FA@3x</title>
    <desc>Created with sketchtool.</desc>
    <g id="Plantilla-maqueta" stroke="none" stroke-width="1" fill="none" fill-rule="evenodd">
        <g id="NATEEVO-Plantilla-maqueta" transform="translate(-1065.000000, -1790.000000)" fill="#FFFFFF" fill-rule="nonzero">
            <g id="FOOTER" transform="translate(0.000000, 1751.000000)">
                <g id="ico-instragram" transform="translate(1065.000000, 39.000000)">
                    <path d="M16.6375,0 L7.5625,0 C3.3864875,0 0,3.3864875 0,7.5625 L0,16.6375 C0,20.8135125 3.3864875,24.2 7.5625,24.2 L16.6375,24.2 C20.8135125,24.2 24.2,20.8135125 24.2,16.6375 L24.2,7.5625 C24.2,3.3864875 20.8135125,0 16.6375,0 Z M21.93125,16.6375 C21.93125,19.556625 19.556625,21.93125 16.6375,21.93125 L7.5625,21.93125 C4.643375,21.93125 2.26875,19.556625 2.26875,16.6375 L2.26875,7.5625 C2.26875,4.643375 4.643375,2.26875 7.5625,2.26875 L16.6375,2.26875 C19.556625,2.26875 21.93125,4.643375 21.93125,7.5625 L21.93125,16.6375 Z" id="Shape"></path>
                    <path d="M12.1,6.05 C8.7588875,6.05 6.05,8.7588875 6.05,12.1 C6.05,15.4411125 8.7588875,18.15 12.1,18.15 C15.4411125,18.15 18.15,15.4411125 18.15,12.1 C18.15,8.7588875 15.4411125,6.05 12.1,6.05 Z M12.1,15.88125 C10.015775,15.88125 8.31875,14.184225 8.31875,12.1 C8.31875,10.0142625 10.015775,8.31875 12.1,8.31875 C14.184225,8.31875 15.88125,10.0142625 15.88125,12.1 C15.88125,14.184225 14.184225,15.88125 12.1,15.88125 Z" id="Shape"></path>
                    <circle id="Oval" cx="18.60375" cy="5.59625" r="1"></circle>
                </g>
            </g>
        </g>
    </g>
</svg>