<?xml version="1.0" encoding="UTF-8"?>
<svg viewBox="0 0 169 22" version="1.1" xmlns="http://www.w3.org/2000/svg" xmlns:xlink="http://www.w3.org/1999/xlink">
    <!-- Generator: sketchtool 57.1 (101010) - https://sketch.com -->
    <title>80C088C2-3778-451C-9F1D-E8565D5FD44C</title>
    <desc>Created with sketchtool.</desc>
    <defs>
        <polygon id="path-1" points="0.246017837 0.333438875 22.0177971 0.333438875 22.0177971 21.2213733 0.246017837 21.2213733"></polygon>
        <polygon id="path-3" points="0 20.58 168.56 20.58 168.56 0 0 0"></polygon>
    </defs>
    <g id="Plantilla-maqueta" stroke="none" stroke-width="1" fill="none" fill-rule="evenodd">
        <g id="NATEEVO-Plantilla-maqueta" transform="translate(-136.000000, -38.000000)">
            <g id="HEADER">
                <g id="logo-nateevo" transform="translate(136.000000, 38.000000)">
                    <g id="Group-7" transform="translate(146.020000, 0.000000)">
                        <mask id="mask-2" fill="white">
                            <use xlink:href="#path-1"></use>
                        </mask>
                        <g id="Clip-6"></g>
                        <path d="M11.1169926,3.77225888 C9.1751762,3.77225888 7.32383501,4.48845513 5.95003985,5.83460763 C4.57624468,7.15313638 3.82931371,8.90084388 3.82931371,10.762752 C3.82931371,12.654642 4.57624468,14.4020126 5.95003985,15.7202045 C7.32383501,17.066357 9.1751762,17.783227 11.1169926,17.783227 C13.0581288,17.783227 14.90947,17.066357 16.2839454,15.7202045 C17.6577406,14.4020126 18.433923,12.654642 18.433923,10.762752 C18.433923,8.90084388 17.6577406,7.15313638 16.2839454,5.83460763 C14.90947,4.48845513 13.0581288,3.77225888 11.1169926,3.77225888 M11.1169926,21.2213733 C9.6534025,21.2213733 8.21974401,20.9346926 6.87588051,20.3899658 C5.59188032,19.8742101 4.42726665,19.1297164 3.41163101,18.1558108 C2.42626716,17.2102026 1.64974466,16.0924514 1.08240365,14.8315283 C0.515062643,13.5423076 0.246017837,12.1958183 0.246017837,10.762752 C0.246017837,9.35899388 0.515062643,8.0125045 1.08240365,6.722947 C1.64974466,5.46269763 2.42626716,4.3446095 3.41163101,3.39967513 C4.42726665,2.4257695 5.59188032,1.68026513 6.87588051,1.16484638 C8.21974401,0.6201195 9.6534025,0.333438875 11.1169926,0.333438875 C12.5805828,0.333438875 14.013561,0.6201195 15.3581048,1.16484638 C16.642105,1.68026513 17.8067186,2.4257695 18.821674,3.39967513 C19.8077181,4.3446095 20.6141723,5.46269763 21.1515816,6.722947 C21.7196029,8.0125045 22.0178991,9.35899388 22.0178991,10.762752 C22.0178991,12.1958183 21.7196029,13.5423076 21.1515816,14.8315283 C20.6141723,16.0924514 19.8077181,17.2102026 18.821674,18.1558108 C17.8067186,19.1297164 16.642105,19.8742101 15.3581048,20.3899658 C14.013561,20.9346926 12.5805828,21.2213733 11.1169926,21.2213733" id="Fill-5" fill="#FFFFFF" mask="url(#mask-2)"></path>
                    </g>
                    <polygon id="Fill-8" fill="#FFFFFF" points="79.5538941 3.18405167 79.5538941 17.3962802 92.12 17.3962802 92.12 20.58 75.46 20.58 75.46 0 92.12 0 92.12 3.18405167"></polygon>
                    <mask id="mask-4" fill="white">
                        <use xlink:href="#path-3"></use>
                    </mask>
                    <g id="Clip-11"></g>
                    <polygon id="Fill-10" fill="#FFFFFF" points="82.32 11.76 88.2 11.76 88.2 8.82 82.32 8.82"></polygon>
                    <polygon id="Fill-12" fill="#FFFFFF" points="103.073894 3.18405167 103.073894 17.3962802 115.64 17.3962802 115.64 20.58 98.98 20.58 98.98 0 115.64 0 115.64 3.18405167"></polygon>
                    <polygon id="Fill-13" fill="#FFFFFF" points="106.82 11.76 112.7 11.76 112.7 8.82 106.82 8.82"></polygon>
                    <polygon id="Fill-1" fill="#FFFFFF" points="0 21.56 3.78221942 21.56 3.78221942 9.10180631 18.62 21.56 18.62 0.981659544 14.838121 0.981659544 14.838121 13.4474871 0 0.98"></polygon>
                    <polygon id="Fill-2" fill="#FFFFFF" points="49.98 0.98 49.98 4.15585423 56.8157744 4.15585423 56.8161122 21.56 60.7838878 21.56 60.78355 4.15585423 67.62 4.15585423 67.62 0.98"></polygon>
                    <polygon id="Fill-3" fill="#FFFFFF" points="36.2313798 0.98 25.48 21.56 29.6900511 21.56 36.2313798 8.29522407 42.8292715 21.56 47.04 21.56"></polygon>
                    <polygon id="Fill-4" fill="#FFFFFF" points="138.869272 0.98 132.27138 14.2447759 125.729712 0.98 121.52 0.98 132.27138 21.56 143.08 0.98"></polygon>
                </g>
            </g>
        </g>
    </g>
</svg>